<svg xmlns="http://www.w3.org/2000/svg" width="1000" height="1000" version="1.0" viewBox="0 0 750 750"><defs><clipPath id="a"><path d="M375 0C167.895 0 0 167.895 0 375s167.895 375 375 375 375-167.895 375-375S582.105 0 375 0Zm0 0"/></clipPath><clipPath id="c"><path d="M0 0h750v750H0Zm0 0"/></clipPath><clipPath id="d"><path d="M375 0C167.895 0 0 167.895 0 375s167.895 375 375 375 375-167.895 375-375S582.105 0 375 0Zm0 0"/></clipPath><clipPath id="b"><path d="M0 0h750v750H0z"/></clipPath><clipPath id="e"><path d="M213.547 389H529v286H213.547Zm0 0"/></clipPath></defs><g clip-path="url(#a)"><g clip-path="url(#b)"><g clip-path="url(#c)"><g clip-path="url(#d)"><path d="M-165-165H915V915H-165z"/></g></g></g></g><path fill="#fff" fill-rule="evenodd" d="M253.777 269.145c-44.336-44.368-44.336-116.364 0-160.696 44.34-44.367 116.356-44.367 160.696 0L535.02 228.957v160.695l-160.696.024Zm0 0"/><g clip-path="url(#e)"><path fill="#fff" fill-rule="evenodd" d="M334.117 670.934 213.574 550.402l.028-160.672 160.671-.023 120.54 120.535c44.335 44.344 44.335 116.363 0 160.695-44.34 44.368-116.36 44.368-160.696 0Zm0 0"/></g></svg>
