<svg xmlns="http://www.w3.org/2000/svg" width="1000" height="1000" version="1.0" viewBox="0 0 750 750"><defs><clipPath id="a"><path d="M375 0C167.895 0 0 167.895 0 375s167.895 375 375 375 375-167.895 375-375S582.105 0 375 0Zm0 0"/></clipPath><clipPath id="c"><path d="M0 0h750v750H0Zm0 0"/></clipPath><clipPath id="d"><path d="M375 0C167.895 0 0 167.895 0 375s167.895 375 375 375 375-167.895 375-375S582.105 0 375 0Zm0 0"/></clipPath><clipPath id="b"><path d="M0 0h750v750H0z"/></clipPath><clipPath id="e"><path d="M256 145.402h242V387H256Zm0 0"/></clipPath><clipPath id="f"><path d="M251.434 386H493v218.402H251.434Zm0 0"/></clipPath></defs><g clip-path="url(#a)"><g clip-path="url(#b)"><g clip-path="url(#c)"><g clip-path="url(#d)"><path d="M-165-165H915V915H-165z"/></g></g></g></g><g clip-path="url(#e)"><path fill="#fff" fill-rule="evenodd" d="M282.227 293.98c-33.934-33.957-33.934-89.054 0-122.984 33.933-33.957 89.05-33.957 122.984 0l92.258 92.23v122.985l-122.985.02Zm0 0"/></g><g clip-path="url(#f)"><path fill="#fff" fill-rule="evenodd" d="m343.71 601.484-92.253-92.25.02-122.964 122.968-.02 92.25 92.254c33.934 33.933 33.934 89.055 0 122.984-33.933 33.953-89.05 33.953-122.984 0Zm0 0"/></g></svg>
