<?xml version="1.0" encoding="UTF-8"?>
<svg width="32" height="32" viewBox="0 0 32 32" fill="none" xmlns="http://www.w3.org/2000/svg">
  <rect width="32" height="32" fill="white"/>
  <path stroke="black" stroke-linecap="round" stroke-linejoin="round" stroke-width="2.5" d="M16 24.67A3.324 3.324 0 0 1 10.01 26.67H10a3.291 3.291 0 0 1-3.2-4.206 3.973 3.973 0 0 1-1.133-7.032 3.291 3.291 0 0 1 1.227-4.243 3.303 3.303 0 0 1 2.501-4.458A3.333 3.333 0 0 1 13.88 4.25 3.333 3.333 0 0 1 16 7.33m0 17.34V7.33m0 17.34a3.324 3.324 0 0 0 5.987 2h.013a3.291 3.291 0 0 0 3.204-4.206 3.973 3.973 0 0 0 1.129-7.032 3.291 3.291 0 0 0-1.228-4.243 3.303 3.303 0 0 0-2.5-4.458A3.333 3.333 0 0 0 19.333 4 3.333 3.333 0 0 0 16 7.33m-10.667 6.667a3.333 3.333 0 0 1 4.64-3.064m-.373 11.401a4 4 0 0 1-3.937-6.913M26.667 14a3.333 3.333 0 0 0-4.641-3.064m.373 11.401a4 4 0 0 0 3.938-6.913"/>
</svg> 